<svg width="24" height="24" viewBox="0 0 24 24" fill="#01875f" xmlns="http://www.w3.org/2000/svg"
    class="headerMenu_Y4jiDf__QgiDj">
    <path fill-rule="evenodd" clip-rule="evenodd"
        d="M15 4H18C19.1 4 20 4.9 20 6V9C20 10.1 19.1 11 18 11H15C13.9 11 13 10.1 13 9V6C13 4.9 13.9 4 15 4ZM9 13H6C4.9 13 4 13.9 4 15V18C4 19.1 4.9 20 6 20H9C10.1 20 11 19.1 11 18V15C11 13.9 10.1 13 9 13ZM18 13H15C13.9 13 13 13.9 13 15V18C13 19.1 13.9 20 15 20H18C19.1 20 20 19.1 20 18V15C20 13.9 19.1 13 18 13ZM9 4H6C4.9 4 4 4.9 4 6V9C4 10.1 4.9 11 6 11H9C10.1 11 11 10.1 11 9V6C11 4.9 10.1 4 9 4Z"></path>
</svg>